<?xml version="1.0" standalone="no"?>
<!DOCTYPE svg PUBLIC "-//W3C//DTD SVG 20010904//EN"
 "http://www.w3.org/TR/2001/REC-SVG-20010904/DTD/svg10.dtd">
<svg version="1.0" xmlns="http://www.w3.org/2000/svg"
 width="512.000000pt" height="512.000000pt" viewBox="0 0 512.000000 512.000000"
 preserveAspectRatio="xMidYMid meet">
<metadata>
Created by potrace 1.14, written by Peter Selinger 2001-2017
</metadata>
<g transform="translate(0.000000,512.000000) scale(0.100000,-0.100000)"
fill="#000000" stroke="none">
<path d="M2507 4680 c-4 -15 -12 -16 -54 -10 -60 10 -146 5 -174 -11 -11 -6
-44 -13 -72 -16 -29 -3 -57 -9 -63 -14 -6 -5 -14 -6 -17 -3 -3 3 -12 2 -19 -2
-7 -5 -22 -9 -33 -10 -30 -4 -72 -13 -99 -24 -13 -5 -27 -6 -32 -2 -4 4 -4 2
-1 -4 8 -14 -14 -24 -48 -24 -14 0 -32 -8 -42 -18 -18 -19 -135 -60 -183 -66
-32 -3 -138 -74 -179 -118 -8 -10 -19 -18 -24 -18 -5 0 -30 -18 -55 -40 -26
-22 -91 -76 -145 -121 -96 -80 -112 -97 -81 -85 8 3 12 2 9 -4 -3 -6 -12 -10
-20 -10 -17 0 -47 -25 -174 -150 -70 -68 -106 -113 -130 -160 -19 -36 -42 -77
-53 -93 -11 -15 -21 -44 -22 -63 -1 -22 -10 -43 -21 -53 -27 -22 -100 -132
-100 -151 0 -8 6 -20 15 -27 13 -11 13 -13 0 -14 -8 -1 -18 -1 -22 0 -4 0 -5
-6 -1 -14 4 -11 9 -12 18 -5 8 7 12 5 12 -5 0 -8 -5 -15 -10 -15 -5 0 -7 -6
-4 -14 3 -8 -1 -17 -9 -20 -20 -8 -8 -26 16 -26 13 0 18 -7 17 -20 -1 -11 -4
-20 -8 -20 -3 0 -5 -15 -3 -32 1 -18 5 -76 8 -128 5 -78 32 -220 35 -185 2 17
27 -28 44 -77 15 -46 15 -47 -7 -62 -27 -17 -38 -16 -89 8 -43 21 -84 66 -93
102 -3 13 -11 24 -17 24 -6 0 -8 3 -4 6 3 3 -1 23 -8 45 -8 22 -15 43 -16 47
-1 4 -3 12 -5 17 -1 6 -9 37 -18 70 -28 109 -45 167 -65 220 -11 29 -17 56
-14 59 4 3 2 6 -3 6 -9 0 -14 20 -14 67 0 12 -5 25 -10 28 -6 3 -10 13 -10 21
0 14 -15 50 -60 144 -29 61 -55 100 -65 97 -26 -7 -155 -316 -155 -373 0 -11
-6 -26 -12 -34 -10 -11 -9 -11 6 0 18 14 19 13 14 -7 -4 -13 -2 -26 3 -29 5
-3 9 -1 9 4 0 12 39 4 59 -12 11 -8 13 -8 7 2 -4 6 -3 12 3 12 5 0 12 -6 14
-12 4 -8 6 -7 6 3 1 9 8 20 17 23 8 3 13 10 10 15 -3 5 1 12 10 15 8 3 13 10
9 15 -3 5 4 16 16 25 20 14 23 13 40 -9 19 -23 25 -71 11 -90 -4 -5 -32 -22
-62 -38 -51 -26 -56 -26 -67 -10 -7 9 -13 13 -14 7 -1 -5 -5 2 -9 16 l-8 25
-1 -26 c-1 -15 5 -29 13 -32 9 -4 12 -14 9 -26 -3 -12 -9 -19 -13 -16 -4 2 -6
-7 -4 -20 1 -14 -2 -27 -7 -31 -5 -3 -7 -10 -3 -15 3 -6 -3 -13 -15 -16 -12
-3 -21 -10 -21 -16 0 -6 -3 -7 -7 -4 -3 4 -12 -1 -19 -11 -8 -10 -13 -12 -14
-4 0 6 -9 12 -20 12 -11 0 -20 5 -20 10 0 6 -4 10 -9 10 -5 0 -9 -10 -9 -22 0
-13 -4 -41 -10 -63 -5 -22 -13 -61 -17 -87 -5 -39 -3 -48 9 -48 8 0 22 -9 30
-21 8 -12 19 -18 25 -14 6 3 11 2 11 -3 0 -14 40 -9 49 7 5 7 14 10 20 7 6 -4
11 -1 12 6 0 7 4 4 9 -7 5 -11 9 -14 9 -7 1 8 9 6 23 -8 12 -11 25 -20 29 -20
4 0 14 -7 22 -15 8 -8 21 -16 28 -17 18 -4 56 -45 75 -81 16 -30 23 -53 29
-97 1 -14 8 -39 15 -57 6 -18 11 -35 10 -38 -1 -4 10 -17 24 -30 13 -12 22
-26 19 -29 -4 -3 -1 -6 5 -6 14 0 92 -78 92 -91 0 -6 7 -8 16 -5 12 5 15 2 10
-11 -4 -10 -4 -14 0 -11 4 4 26 -9 51 -29 32 -26 40 -38 31 -44 -11 -7 -10 -9
1 -9 8 0 11 -6 7 -16 -4 -10 -2 -13 6 -8 8 5 9 2 5 -9 -3 -10 -2 -17 3 -17 6
0 10 -7 10 -16 0 -8 -4 -12 -10 -9 -6 3 -11 -2 -12 -12 -2 -33 -3 -38 -13 -53
-5 -8 -8 -23 -7 -32 2 -13 -1 -16 -14 -11 -12 4 -15 3 -10 -5 4 -7 14 -12 23
-12 9 0 27 -12 40 -27 24 -26 25 -27 20 -6 -4 19 -1 23 21 24 26 1 26 1 -4 10
-20 6 -34 17 -38 31 -5 18 -8 20 -15 9 -5 -8 -11 -9 -15 -3 -3 5 1 13 10 16
27 10 34 7 36 -16 0 -13 4 -3 7 22 3 25 10 44 15 42 5 -2 17 9 27 25 10 15 19
24 19 18 0 -5 5 -3 10 5 8 13 10 12 10 -2 0 -28 1 -32 15 -58 8 -14 26 -50 40
-80 15 -30 34 -67 43 -82 17 -27 16 -27 -31 -75 -66 -67 -87 -94 -81 -104 3
-5 1 -9 -4 -9 -5 0 -20 -20 -33 -45 -13 -25 -27 -45 -31 -45 -13 0 -9 18 5 23
9 4 9 6 0 6 -19 2 -26 -19 -11 -36 9 -12 9 -15 1 -9 -9 5 -13 0 -14 -16 -1
-23 -1 -23 -8 2 -5 17 -9 21 -15 12 -4 -7 -12 -9 -18 -6 -6 4 -9 1 -6 -7 6
-18 -57 -125 -95 -164 -17 -16 -25 -31 -18 -33 17 -6 13 -20 -8 -27 -25 -8
-55 -54 -53 -82 1 -11 -4 -23 -12 -26 -7 -3 -19 -34 -26 -69 -13 -62 -13 -62
-22 -30 -7 27 -11 31 -27 23 -10 -6 -22 -7 -26 -3 -27 24 96 -158 174 -258 36
-47 115 -136 175 -198 400 -413 906 -672 1477 -756 126 -19 546 -22 679 -6
573 71 1114 344 1520 767 144 149 203 224 194 248 -5 13 -9 14 -15 3 -7 -10
-9 -10 -9 0 0 10 -5 10 -20 2 -23 -12 -24 -10 -8 25 7 15 17 24 25 21 7 -3 13
-2 13 3 0 5 -11 11 -25 13 -16 3 -25 1 -25 -7 0 -18 -47 -65 -65 -65 -9 0 -13
5 -10 10 4 6 11 8 16 5 14 -9 23 24 10 39 -9 10 -8 15 3 19 8 3 20 15 25 26
11 19 9 20 -36 15 -48 -6 -114 13 -128 36 -10 16 -25 2 -25 -23 0 -16 -3 -19
-9 -8 -5 7 -14 11 -20 7 -10 -7 -52 15 -81 43 -20 20 -109 59 -151 67 l-34 7
30 -34 c17 -19 32 -36 35 -39 3 -3 12 -14 20 -25 26 -33 -39 16 -83 64 -32 35
-44 41 -77 41 -21 0 -42 -4 -45 -10 -14 -22 -27 -9 -21 20 3 19 2 29 -4 25 -6
-3 -10 0 -10 8 0 10 -14 16 -42 19 -24 3 -45 3 -47 2 -9 -7 20 -31 54 -44 39
-15 46 -30 15 -30 -25 0 -105 74 -96 89 4 7 1 9 -8 5 -9 -3 -17 2 -21 15 -3
12 -11 21 -16 21 -5 0 -9 14 -9 32 0 44 -66 143 -108 164 -18 8 -36 22 -39 30
-3 7 -28 30 -55 50 -51 36 -67 35 -68 -6 0 -13 -1 -13 -11 0 -8 11 -12 12 -16
2 -2 -6 -9 -10 -14 -6 -5 3 -9 0 -9 -5 0 -6 -7 -11 -16 -11 -8 0 -13 4 -10 9
3 4 -1 17 -9 27 -8 10 -15 27 -15 36 0 9 -7 23 -15 32 -18 17 -10 47 11 39 8
-3 14 -17 14 -32 0 -17 5 -28 14 -28 14 0 16 14 3 34 -4 6 -3 14 1 17 5 3 8
15 7 28 -1 13 2 26 7 29 15 10 16 57 2 63 -8 3 -14 19 -14 36 0 16 -5 30 -11
30 -6 0 -9 14 -6 36 4 25 1 37 -9 41 -8 3 -14 11 -14 19 0 8 -4 14 -10 14 -5
0 -10 7 -10 16 0 8 -4 12 -10 9 -5 -3 -10 -1 -10 6 0 7 -2 10 -5 7 -3 -3 4
-22 15 -41 12 -20 19 -41 16 -46 -3 -5 0 -12 6 -14 10 -4 10 -6 1 -6 -7 -1
-10 -8 -7 -16 4 -8 9 -13 13 -11 3 2 6 -11 6 -30 0 -19 -2 -34 -5 -34 -3 0 -5
-11 -5 -25 0 -14 3 -25 8 -25 4 0 7 -4 7 -10 0 -5 -9 -10 -21 -10 -11 0 -18 4
-14 9 3 5 1 12 -5 16 -5 3 -10 1 -10 -4 0 -6 -3 -10 -7 -10 -27 4 -42 -3 -37
-16 8 -20 -10 -19 -41 1 -25 16 -35 54 -14 54 6 0 4 7 -5 15 -20 21 -24 19
-18 -10 3 -19 0 -25 -14 -25 -16 0 -17 2 -4 10 10 6 11 10 3 10 -7 0 -13 7
-13 15 0 9 6 18 13 21 7 3 13 30 15 76 4 95 13 111 62 106 32 -3 40 0 44 16 3
11 1 27 -5 35 -8 13 -9 12 -4 -4 4 -15 0 -21 -14 -22 -13 -1 -21 6 -23 18 -3
20 -3 20 -26 -1 -18 -17 -27 -19 -35 -11 -13 13 -87 15 -87 2 0 -5 -19 1 -42
13 -43 21 -148 32 -158 16 -5 -7 -60 -13 -101 -11 -30 2 -60 37 -55 64 5 28
-24 43 -44 23 -8 -8 -9 -7 -4 7 7 18 64 54 64 40 0 -5 5 -1 10 7 6 9 10 11 10
3 0 -7 7 -10 15 -7 13 5 13 9 3 22 -10 12 -10 14 -1 8 9 -5 11 -2 7 8 -6 15
-6 15 -64 -14 -12 -6 -25 -8 -29 -6 -10 6 -35 -21 -44 -46 -4 -10 -2 -18 3
-18 17 0 11 -29 -9 -49 -11 -11 -16 -23 -13 -27 4 -4 1 -4 -6 0 -11 6 -11 11
0 24 11 13 11 14 -2 9 -8 -4 -23 -10 -32 -13 -10 -4 -18 -11 -18 -16 0 -6 -7
-7 -16 -4 -8 3 -12 2 -9 -4 3 -6 0 -10 -8 -10 -8 0 -17 -9 -20 -20 -4 -18 -57
-49 -94 -56 -6 -1 -24 -14 -40 -28 -22 -21 -30 -24 -38 -13 -7 9 -19 11 -38 6
-35 -10 -71 5 -87 37 -12 22 -14 22 -29 5 -9 -9 -12 -11 -7 -4 5 8 4 13 -2 13
-11 0 -11 18 1 37 4 7 2 23 -5 35 -7 13 -12 25 -11 28 1 3 -9 7 -23 8 -16 1
-24 -3 -24 -14 0 -14 -3 -14 -15 -4 -8 7 -15 25 -15 41 0 23 -4 27 -21 24 -15
-3 -19 0 -15 11 3 9 1 12 -4 9 -6 -3 -10 -1 -10 5 0 7 -7 9 -16 6 -12 -5 -15
-2 -12 12 4 15 1 18 -21 15 -23 -4 -24 -3 -7 8 17 11 17 13 -10 35 -16 14 -35
22 -45 19 -9 -3 -20 -1 -24 5 -4 6 -3 10 2 9 32 -6 44 2 37 24 -9 31 -14 34
-24 17 -7 -11 -10 -7 -9 15 0 17 3 24 6 18 2 -7 9 -13 14 -13 6 0 8 4 5 8 -2
4 -1 14 4 22 7 11 1 17 -22 25 -17 5 -34 17 -36 25 -4 11 -1 10 12 -3 20 -19
25 -20 46 -7 14 9 8 24 -11 26 -5 1 -13 2 -19 3 -18 2 -11 18 10 24 11 3 18 1
14 -4 -3 -5 -1 -9 5 -9 5 0 12 6 14 13 4 9 8 8 16 -3 10 -13 15 -8 12 13 0 4
7 7 16 7 15 0 16 2 3 10 -10 7 -11 10 -2 10 7 0 16 -8 19 -17 9 -24 33 -48 33
-33 0 21 44 29 64 11 18 -15 19 -15 14 6 -4 13 -2 26 3 29 5 3 9 -4 9 -15 0
-15 6 -21 21 -21 11 0 17 5 14 10 -3 6 0 10 8 10 8 0 17 -9 20 -20 3 -11 11
-20 19 -20 10 0 9 3 -2 10 -10 7 -11 10 -2 10 7 0 15 -7 18 -15 4 -8 10 -13
14 -10 4 3 11 -2 14 -11 4 -9 9 -14 13 -11 3 4 13 1 21 -6 13 -10 15 -9 9 6
-3 9 -4 17 -1 17 2 0 9 -11 14 -25 5 -14 15 -25 22 -25 9 0 8 3 -2 10 -12 8
-12 10 5 10 11 0 26 -9 33 -20 7 -12 17 -18 22 -15 6 3 10 1 10 -5 0 -7 7 -10
15 -7 8 4 17 2 20 -2 3 -5 15 -7 28 -5 28 6 98 25 117 32 8 3 21 6 28 8 7 1
28 12 48 23 19 12 42 21 50 21 8 0 37 11 65 25 27 14 54 23 59 20 6 -4 10 -1
10 4 0 6 8 11 18 11 12 0 18 9 20 27 1 15 9 37 17 49 8 13 15 29 15 35 0 17
40 49 62 49 11 0 17 4 13 9 -8 14 35 25 48 12 8 -8 7 -11 -3 -11 -13 0 -13 -2
-1 -9 8 -5 18 -35 22 -67 8 -59 57 -183 73 -184 4 0 26 -14 48 -31 22 -18 52
-32 68 -33 15 -1 25 -5 22 -10 -3 -5 2 -7 11 -3 10 4 17 1 17 -6 0 -8 3 -8 8
-2 4 6 17 12 30 12 30 2 92 41 92 58 0 7 7 16 16 19 10 4 13 13 9 27 -5 14 -3
19 4 15 20 -13 49 12 46 39 -3 20 1 25 20 25 18 0 26 -8 33 -32 6 -18 11 -40
11 -48 0 -8 7 -64 15 -125 8 -60 15 -154 15 -209 1 -78 4 -97 14 -93 24 9 72
-22 91 -58 17 -32 18 -50 13 -201 -4 -91 -9 -169 -11 -173 -3 -4 -6 -45 -7
-91 -3 -81 -2 -83 26 -106 28 -22 30 -22 36 -5 4 9 10 64 14 121 4 57 10 113
15 124 4 12 6 29 5 38 -2 10 1 48 6 85 13 99 18 147 29 248 6 50 12 106 15
125 5 37 30 64 53 55 7 -2 10 0 7 5 -3 6 2 10 12 10 11 0 24 5 31 12 8 8 18 9
35 1 21 -10 24 -19 26 -73 2 -68 21 -100 58 -100 77 0 123 77 93 155 -15 40
-19 141 -8 178 21 65 38 98 55 104 10 4 21 11 25 17 5 7 8 7 8 1 0 -5 21 -10
47 -9 27 0 84 -3 128 -7 70 -6 138 -12 290 -24 22 -2 77 -4 122 -5 46 -2 81
-5 79 -9 -2 -3 47 -7 110 -9 l114 -2 0 72 c0 40 -3 96 -6 124 l-6 51 -142 3
c-77 1 -229 1 -336 0 -107 0 -202 -1 -210 -1 -94 -1 -187 6 -197 14 -9 6 -13
6 -13 -1 0 -6 -10 -8 -22 -5 -13 2 -31 5 -41 5 -9 -1 -29 6 -45 14 -33 17 -46
18 -36 2 6 -10 5 -10 -8 0 -11 8 -17 38 -21 106 -5 90 -13 119 -83 308 -29 79
-38 198 -13 182 5 -3 9 -1 9 4 0 6 -7 12 -15 16 -8 3 -15 10 -15 16 0 6 6 8
13 4 9 -5 9 -4 1 5 -17 18 4 91 33 119 13 12 21 22 17 22 -4 0 2 10 13 23 11
12 23 29 27 37 8 16 -27 -22 -49 -53 -7 -10 -20 -19 -28 -21 -8 -1 -22 -8 -31
-15 -16 -13 -40 -6 -31 10 4 5 2 9 -3 9 -5 0 -12 11 -14 25 -3 13 -1 22 3 19
5 -3 6 2 3 10 -3 9 -9 16 -13 16 -4 0 -7 10 -7 23 1 13 -4 21 -12 19 -8 -1
-12 5 -11 15 2 10 -2 28 -9 40 -16 28 -4 35 49 27 47 -8 49 9 3 20 -15 4 -46
22 -68 41 -23 19 -53 40 -67 47 -41 21 -89 66 -89 82 0 9 -6 13 -13 10 -13 -5
-15 10 -21 128 0 9 -4 15 -8 12 -4 -2 -7 4 -7 13 0 23 -5 51 -16 87 -9 34 -50
97 -62 97 -4 0 -19 7 -32 16 -13 8 -45 15 -72 15 -47 0 -48 1 -27 18 16 13 18
19 8 25 -8 5 -11 4 -7 -2 7 -12 -17 -25 -27 -16 -10 10 -7 25 4 18 6 -3 10 -1
10 4 0 6 -4 12 -10 12 -20 3 -25 4 -39 13 -10 7 -12 6 -6 -4 14 -23 -39 1 -65
30 -14 15 -34 30 -45 32 -11 2 -19 10 -17 16 1 7 -6 12 -15 12 -15 0 -15 2 -4
9 11 7 5 13 -24 25 -20 9 -41 16 -46 16 -5 0 -9 5 -9 12 0 6 -3 8 -6 5 -4 -3
-16 -1 -27 5 -12 6 -34 11 -51 10 -17 0 -47 11 -70 27 -59 40 -66 43 -66 33 0
-5 10 -12 22 -15 12 -4 20 -9 16 -12 -8 -9 -58 17 -58 30 0 6 -19 18 -42 25
-24 8 -47 17 -53 20 -5 4 -32 7 -60 8 -27 1 -43 -2 -35 -5 8 -3 21 -13 30 -22
13 -13 13 -14 -5 -7 -11 5 -44 13 -72 18 -29 6 -53 13 -53 16 0 4 -13 7 -29 8
-20 1 -31 -4 -34 -16z m126 -1144 c15 -4 25 -11 22 -16 -3 -6 4 -10 17 -10 13
0 30 -9 38 -19 7 -11 18 -17 23 -14 5 3 13 0 17 -7 6 -10 15 -10 39 -2 23 8
31 8 32 -1 0 -7 4 -3 9 8 l9 20 1 -20 1 -20 9 20 c5 11 9 15 9 8 1 -7 8 -10
18 -6 12 5 14 3 9 -8 -4 -8 0 -5 8 5 9 11 16 16 16 12 0 -5 12 -1 26 9 14 9
32 14 39 11 8 -3 17 -1 20 4 4 6 13 10 21 10 8 0 13 -4 10 -9 -9 -14 56 -23
67 -9 6 10 10 10 13 1 4 -8 12 -5 25 8 11 11 24 17 29 14 6 -4 10 -1 10 5 0 7
6 10 14 7 8 -3 17 1 20 9 6 16 81 20 91 4 4 -6 10 -8 14 -5 10 6 81 -59 81
-75 0 -6 11 -15 25 -22 13 -6 22 -14 20 -19 -3 -4 -1 -10 5 -14 5 -3 10 0 11
7 0 7 5 -1 10 -19 5 -18 18 -35 30 -38 11 -4 18 -9 15 -12 -3 -4 0 -13 7 -21
12 -15 21 -267 10 -285 -3 -4 -11 -3 -18 3 -10 8 -15 6 -20 -9 -3 -11 -9 -20
-13 -20 -4 1 -11 0 -17 -1 -15 -4 -74 -9 -135 -12 -30 -2 -59 -6 -65 -9 -5 -3
-20 -4 -32 -3 -12 0 -30 -7 -39 -17 -10 -11 -26 -19 -36 -19 -11 0 -39 -20
-64 -45 -24 -25 -44 -41 -44 -36 0 5 -7 11 -14 14 -9 4 -13 1 -10 -6 3 -9 -5
-13 -24 -12 -23 0 -29 4 -28 20 2 26 -15 66 -25 59 -5 -2 -18 5 -30 17 -11 11
-26 22 -33 23 -6 1 -21 8 -33 14 -15 8 -23 9 -23 2 0 -16 -27 -12 -34 6 -3 8
-10 12 -16 9 -5 -3 -10 -1 -10 5 0 6 -4 9 -9 6 -5 -4 -34 4 -65 15 -46 18 -62
20 -96 11 -24 -6 -40 -6 -40 -1 0 6 -9 5 -20 -1 -11 -6 -20 -7 -20 -1 0 5 -15
6 -37 1 -20 -5 -44 -5 -53 0 -9 5 -22 5 -30 0 -8 -5 -33 -7 -56 -5 -31 3 -44
1 -48 -10 -6 -17 -46 -35 -92 -42 -32 -4 -34 -1 -34 57 0 20 -2 22 -10 10 -8
-13 -10 -12 -10 3 0 9 6 17 13 17 8 0 7 4 -3 10 -13 9 -13 10 0 10 13 0 13 1
0 10 -13 8 -13 10 1 10 9 0 16 7 16 15 0 12 -3 12 -16 2 -10 -8 -13 -9 -8 0
12 19 -10 25 -27 7 -19 -18 -22 -4 -3 15 10 12 9 13 -7 7 -15 -5 -17 -2 -13
14 3 11 0 23 -5 27 -6 3 -8 2 -5 -3 3 -6 2 -16 -4 -24 -6 -11 -9 -12 -9 -2 0
7 -3 11 -7 9 -14 -9 -2 106 12 120 11 10 14 10 18 0 3 -7 6 -6 6 5 1 9 -5 19
-11 21 -7 3 1 4 19 3 18 -2 31 1 30 6 -1 6 11 12 27 14 16 1 33 9 38 17 4 8
28 18 53 21 25 4 57 18 72 30 16 13 41 26 56 30 15 4 25 11 22 16 -3 6 1 10 9
10 9 0 16 9 16 20 0 18 12 24 47 23 7 -1 10 3 8 8 -6 9 95 17 110 8 6 -3 23
-9 38 -13z m24 -1373 c-4 -3 0 -14 8 -23 9 -10 18 -27 20 -39 2 -13 7 -31 10
-42 4 -10 2 -19 -3 -19 -6 0 -8 -8 -5 -18 2 -11 -4 -25 -14 -33 -17 -13 -17
-13 -3 6 14 19 14 19 -3 6 -12 -10 -15 -17 -7 -25 18 -18 11 -30 -8 -13 -21
19 -37 23 -27 7 5 -8 -10 -9 -44 -4 -37 5 -51 3 -51 -5 0 -7 -4 -9 -10 -6 -5
3 -10 0 -11 -7 0 -10 -2 -10 -6 0 -2 6 -9 10 -14 7 -5 -4 -6 1 -3 9 3 9 9 16
13 16 3 0 15 18 25 41 11 22 24 43 29 46 6 4 7 1 2 -7 -5 -9 -4 -11 4 -6 6 4
9 12 5 17 -8 13 27 40 44 34 9 -3 11 1 7 15 -5 15 -2 20 12 21 16 1 15 2 -2 7
l-20 5 20 8 c25 10 40 11 32 2z m633 -477 l45 -2 0 -40 c0 -26 4 -38 12 -37
12 3 13 -40 2 -62 -3 -6 -6 -26 -7 -45 -4 -51 -42 -206 -56 -226 -10 -12 -17
-14 -32 -7 -10 6 -29 9 -41 8 -14 -1 -19 3 -16 12 3 7 0 13 -6 13 -6 0 -11 -5
-11 -11 0 -6 -8 -8 -19 -4 -11 3 -21 0 -24 -9 -7 -17 -43 -10 -51 10 -4 9 -15
12 -35 8 -33 -7 -104 13 -96 27 4 5 11 9 16 9 6 0 7 -5 3 -11 -4 -7 -1 -10 7
-7 8 2 15 16 17 30 3 22 -1 26 -22 24 -14 0 -26 -7 -26 -13 0 -7 -4 -13 -9
-13 -5 0 -7 -9 -4 -20 3 -12 -1 -22 -11 -26 -9 -3 -13 -11 -9 -17 4 -6 1 -7
-8 -1 -19 12 -69 11 -69 0 0 -6 -7 -1 -16 10 -8 10 -12 12 -8 4 6 -12 5 -13
-7 -3 -17 13 -89 26 -88 15 4 -26 -2 -32 -21 -22 -15 8 -26 7 -42 -1 -22 -12
-22 -11 -8 6 14 17 13 18 -2 13 -10 -4 -19 -1 -23 9 -4 13 -8 14 -17 5 -7 -7
-17 -12 -22 -12 -6 0 -4 5 4 10 12 8 11 10 -5 10 -11 0 -28 8 -36 18 -9 9 -25
24 -37 32 -16 10 -18 16 -9 22 9 6 9 8 -1 8 -6 0 -11 3 -11 8 3 19 -2 25 -11
12 -7 -11 -10 -11 -10 -2 0 8 -5 10 -12 6 -7 -4 -5 2 5 14 19 20 18 21 -5 15
-18 -4 -20 -2 -8 6 12 9 11 14 -8 40 -24 32 -28 46 -12 36 14 -9 12 2 -6 30
-9 14 -13 33 -9 45 7 23 35 27 35 5 0 -8 5 -15 10 -15 14 0 -5 36 -22 43 -8 4
-7 6 4 6 9 1 22 -7 28 -16 11 -17 11 -17 6 -1 -3 10 -1 20 4 23 6 4 10 -3 10
-13 0 -11 7 -22 15 -26 17 -6 21 9 5 19 -14 9 -12 25 3 20 6 -2 32 -6 57 -9
51 -5 80 -14 80 -26 0 -5 3 -17 6 -27 4 -12 3 -14 -3 -5 -7 9 -14 2 -28 -25
-10 -21 -19 -45 -19 -53 -2 -30 46 -58 87 -51 4 1 24 -6 45 -15 20 -9 60 -17
87 -18 28 -2 61 -6 75 -9 55 -14 111 -16 116 -4 2 7 22 12 45 12 26 0 45 6 52
16 7 9 24 19 38 22 14 4 26 13 26 22 0 12 -3 12 -16 2 -12 -10 -14 -9 -8 5 4
11 2 15 -6 12 -8 -3 -13 4 -13 16 0 11 4 20 9 20 5 0 3 8 -4 17 -12 14 -12 16
1 9 8 -4 6 -1 -5 8 -11 8 -27 21 -35 28 -8 7 -18 12 -22 11 -5 -2 -8 4 -8 12
0 13 4 14 20 5 11 -6 20 -7 19 -3 -3 20 2 34 11 28 6 -3 10 -2 10 4 0 5 9 8
20 6 11 -2 20 0 20 6 0 5 7 9 15 9 8 0 15 4 15 9 0 6 10 8 23 5 12 -3 42 -7
67 -8z"/>
<path d="M4 2643 c-8 -68 1 -335 15 -413 5 -30 19 -108 31 -173 21 -122 68
-288 117 -417 l29 -75 74 -6 c41 -3 85 -10 97 -17 12 -7 32 -12 44 -12 36 0
97 31 103 52 3 15 10 18 25 13 16 -5 21 -2 21 12 1 17 1 17 11 0 6 -10 8 -25
5 -33 -3 -8 -3 -14 -1 -14 11 0 65 54 65 65 0 16 47 55 56 47 4 -4 4 -2 1 4
-4 6 2 19 12 28 18 16 17 18 -13 49 -24 25 -38 31 -62 29 -27 -3 -32 0 -38 22
-3 14 -12 25 -19 23 -6 -1 -11 4 -10 11 2 6 -1 12 -7 12 -5 0 -14 18 -20 41
-6 23 -14 38 -17 35 -7 -7 -52 83 -53 105 0 8 -4 19 -9 25 -16 16 -63 138 -63
161 0 12 -8 24 -17 26 -12 4 -12 5 3 6 20 1 20 1 0 16 -10 8 -14 15 -9 15 15
0 16 40 2 41 -7 0 -3 4 8 9 11 5 15 9 8 9 -7 1 -10 8 -7 16 5 11 2 13 -12 8
-12 -4 -15 -3 -10 6 4 6 3 17 -2 24 -11 13 -12 17 -12 42 0 8 -7 15 -16 15 -8
0 -23 7 -31 16 -13 13 -18 13 -25 2 -6 -9 -8 -5 -6 12 2 15 -2 25 -10 25 -7 0
-16 5 -20 11 -4 6 -17 16 -29 23 -13 6 -23 19 -23 28 0 9 -3 13 -6 10 -4 -4
-16 3 -26 16 -11 12 -28 32 -39 45 -10 12 -19 25 -19 28 0 3 -7 12 -15 20 -8
9 -15 11 -15 6 0 -11 -25 -10 -36 1 -16 16 -23 4 -30 -50z"/>
</g>
</svg>
